# xmcd
#
# Track frame offsets:
# 150
# 7915
# 20291
# 41738
# 57166
# 74027
# 103167
# 121264
# 143790
# 161091
# 176809
# 199605
#
# Disc length: 2891 seconds
#
#
# Revision: 1
# Processed by: cddbd v1.5.1PL0 Copyright (c) Steve Scherf et al.
# Submitted via: FreeRIP 2.53 
#
DISCID=a60b490c
DTITLE=Tom House - That Dark Calling
DYEAR=2004
DGENRE=country
TTITLE0=Old Man
TTITLE1=All Fall Down
TTITLE2=Hey Tom
TTITLE3=Jimmy Teal
TTITLE4=Bake My Beans
TTITLE5=Exile
TTITLE6=Too Close to God
TTITLE7=Hankering
TTITLE8=Little Shot of Something Blue
TTITLE9=Susan's Song
TTITLE10=That Dark Calling
TTITLE11=No Gala
EXTD=
EXTT0=
EXTT1=
EXTT2=
EXTT3=
EXTT4=
EXTT5=
EXTT6=
EXTT7=
EXTT8=
EXTT9=
EXTT10=
EXTT11=
PLAYORDER=
